<svg width="173" height="40" viewBox="0 0 173 40" fill="none" xmlns="http://www.w3.org/2000/svg">
<g clip-path="url(#clip0_59_108)">
<path d="M52.8518 9.46312C52.1995 10.0965 51.419 10.4132 50.5101 10.4132C49.6013 10.4132 48.818 10.0965 48.1685 9.46312C47.5162 8.82971 47.1914 8.06365 47.1914 7.15954C47.1914 6.25544 47.5162 5.44878 48.1685 4.81536C48.818 4.18194 49.5986 3.86523 50.5101 3.86523C51.4217 3.86523 52.2023 4.18194 52.8518 4.81536C53.5014 5.44878 53.8289 6.22837 53.8289 7.15954C53.8289 8.09072 53.5041 8.83241 52.8518 9.46312ZM47.6199 31.5975V12.0753H53.4386V31.5948H47.6199V31.5975Z" fill="white"/>
<path d="M57.3418 31.5949V12.0754H63.1605V14.5143C63.5753 13.6616 64.2986 12.9714 65.3275 12.4435C66.3564 11.9157 67.5464 11.6504 68.9001 11.6504C71.2936 11.6504 73.1495 12.3677 74.4649 13.7997C75.7804 15.2316 76.4382 17.2158 76.4382 19.744V31.5949H70.6195V20.4397C70.6195 19.3028 70.3083 18.4068 69.6833 17.7491C69.0584 17.0913 68.1741 16.761 67.0278 16.761C65.8815 16.761 64.9836 17.1238 64.2549 17.8465C63.5262 18.5693 63.1605 19.5004 63.1605 20.6346V31.5949H57.3418Z" fill="white"/>
<path d="M80.1053 32.331V12.0752H85.924V33.0267C85.924 37.6745 83.6342 39.997 79.0518 39.997C78.0884 39.997 77.2424 39.9456 76.5137 39.8427V34.8078C77.0868 34.8593 77.5044 34.8863 77.7637 34.8863C78.5715 34.8863 79.1637 34.6941 79.5404 34.3044C79.917 33.9173 80.1053 33.2595 80.1053 32.3283V32.331ZM85.3372 9.48199C84.685 10.1289 83.9044 10.4511 82.9956 10.4511C82.0867 10.4511 81.3035 10.1289 80.6539 9.48199C80.0016 8.83775 79.6768 8.06357 79.6768 7.15947C79.6768 6.25536 80.0016 5.4893 80.6539 4.85589C81.3035 4.22247 82.084 3.90576 82.9956 3.90576C83.9071 3.90576 84.6877 4.22247 85.3372 4.85589C85.9868 5.4893 86.3143 6.25807 86.3143 7.15947C86.3143 8.06087 85.9895 8.83775 85.3372 9.48199Z" fill="white"/>
<path d="M92.0358 29.1749C89.9125 27.1745 88.8535 24.7275 88.8535 21.8365C88.8535 18.9455 89.9152 16.4985 92.0358 14.4981C94.1564 12.4977 96.741 11.4961 99.7868 11.4961C102.833 11.4961 105.384 12.4977 107.519 14.4981C109.653 16.4985 110.72 18.9455 110.72 21.8365C110.72 24.7275 109.653 27.1745 107.519 29.1749C105.384 31.1753 102.808 32.1769 99.7868 32.1769C96.7655 32.1769 94.1564 31.1753 92.0358 29.1749ZM94.6722 21.8365C94.6722 23.282 95.1662 24.4974 96.1569 25.4773C97.1449 26.4599 98.3567 26.9498 99.7895 26.9498C101.222 26.9498 102.431 26.4545 103.422 25.4583C104.41 24.4649 104.907 23.2576 104.907 21.8365C104.907 20.4154 104.413 19.2108 103.422 18.2146C102.431 17.2212 101.222 16.7231 99.7895 16.7231C98.3567 16.7231 97.1476 17.2212 96.1569 18.2146C95.1662 19.2081 94.6722 20.4154 94.6722 21.8365Z" fill="white"/>
<path d="M113.766 31.5949V4.60156H119.584V14.6334C119.871 13.7807 120.548 13.085 121.615 12.5409C122.682 11.9995 123.957 11.7289 125.441 11.7289C128.228 11.7289 130.55 12.7033 132.412 14.6523C134.273 16.6013 135.204 18.9969 135.204 21.8365C135.204 24.676 134.273 27.0716 132.412 29.0206C130.55 30.9696 128.228 31.9441 125.441 31.9441C123.957 31.9441 122.682 31.6734 121.615 31.132C120.548 30.5906 119.871 29.8922 119.584 29.0395V31.5949H113.766ZM120.736 18.3689C119.734 19.3109 119.232 20.4668 119.232 21.8365C119.232 23.2061 119.732 24.3593 120.736 25.304C121.738 26.246 122.955 26.717 124.388 26.717C125.821 26.717 126.978 26.246 127.941 25.304C128.905 24.362 129.385 23.2061 129.385 21.8365C129.385 20.4668 128.902 19.3136 127.941 18.3689C126.978 17.4269 125.793 16.9559 124.388 16.9559C122.982 16.9559 121.738 17.4269 120.736 18.3689Z" fill="white"/>
<path d="M137.018 31.0153C136.379 30.3954 136.062 29.6592 136.062 28.8065C136.062 27.9538 136.382 27.2175 137.018 26.6003C137.656 25.9805 138.404 25.6719 139.264 25.6719C140.124 25.6719 140.871 25.9805 141.51 26.6003C142.149 27.2202 142.465 27.9565 142.465 28.8065C142.465 29.6564 142.146 30.3954 141.51 31.0153C140.871 31.6352 140.124 31.9438 139.264 31.9438C138.404 31.9438 137.656 31.6352 137.018 31.0153Z" fill="white"/>
<path d="M150.979 32.0984C148.817 32.0984 147.106 31.5759 145.845 30.5311C144.582 29.4862 143.951 28.084 143.951 26.33C143.951 24.2646 144.666 22.6892 146.099 21.6037C147.529 20.5182 149.953 19.7576 153.362 19.3191C154.898 19.1377 155.842 18.9834 156.192 18.8535C156.544 18.7235 156.718 18.415 156.718 17.925V17.7707C156.718 16.6338 155.703 16.0654 153.673 16.0654C151.511 16.0654 149.598 16.9316 147.933 18.6613L144.849 15.524C147.087 12.8387 150.056 11.4961 153.752 11.4961C156.511 11.4961 158.64 12.0781 160.135 13.2393C161.631 14.4006 162.382 16.0545 162.382 18.1957V25.3988C162.382 25.8644 162.461 26.2109 162.616 26.4436C162.772 26.6764 162.936 26.8118 163.105 26.8497C163.274 26.8876 163.514 26.9065 163.828 26.9065H163.984V31.4758C163.411 31.76 162.63 31.9008 161.642 31.9008C160.471 31.9008 159.532 31.6166 158.831 31.0481C158.413 30.7124 158.127 30.2875 157.971 29.7704C156.59 31.3188 154.262 32.093 150.982 32.093L150.979 32.0984ZM151.956 27.4885C153.386 27.4885 154.532 27.2314 155.392 26.7143C156.252 26.1973 156.68 25.4367 156.68 24.4297V22.765C156.369 22.9463 155.015 23.2441 152.619 23.6555C151.577 23.8369 150.823 24.0805 150.354 24.3918C149.885 24.7004 149.65 25.1525 149.65 25.748C149.65 26.9092 150.417 27.4912 151.953 27.4912L151.956 27.4885Z" fill="white"/>
<path d="M172.026 9.46312C171.373 10.0965 170.593 10.4132 169.684 10.4132C168.775 10.4132 167.992 10.0965 167.342 9.46312C166.69 8.82971 166.365 8.06365 166.365 7.15954C166.365 6.25544 166.69 5.44878 167.342 4.81536C167.992 4.18194 168.772 3.86523 169.684 3.86523C170.596 3.86523 171.376 4.18194 172.026 4.81536C172.675 5.44878 173.003 6.22837 173.003 7.15954C173.003 8.09072 172.678 8.83241 172.026 9.46312ZM166.794 31.5975V12.0753H172.612V31.5948H166.794V31.5975Z" fill="white"/>
<path d="M0.000331879 6.25293L5.34961 6.25293L5.34961 -3.14713e-05L0.000331879 -3.14713e-05L0.000331879 6.25293Z" fill="white"/>
<path d="M25.739 0.0947266H24.2134L22.1228 6.28001L28.6375 26.3896L21.0584 26.4844L23.0862 20.4371L17.4777 20.0825L13.7168 31.8847L35.9463 31.6031L25.739 0.0947266Z" fill="white"/>
<path d="M19.8278 5.40027L21.539 0.0947266H15.9114L7.40711 26.5331H5.34928V8.33997H0V31.8387H11.3181L19.8196 5.40027H19.8278Z" fill="white"/>
</g>
<defs>
<clipPath id="clip0_59_108">
<rect width="173" height="40" fill="white"/>
</clipPath>
</defs>
</svg>
