<svg width="149" height="21" viewBox="0 0 149 21" fill="none" xmlns="http://www.w3.org/2000/svg">
<path d="M129.39 10.5289C126.88 10.4641 124.38 10.1142 121.966 9.46737C121.37 9.28443 120.761 9.13168 120.173 8.92668C119.59 8.70769 119.001 8.50031 118.42 8.27434L116.718 7.50593C116.152 7.22977 115.576 6.92206 114.98 6.6063C113.717 5.93463 112.359 5.20998 110.815 4.6319C110.042 4.34474 109.213 4.1041 108.339 3.94899C107.467 3.79297 106.541 3.72985 105.632 3.79269C104.425 3.86864 103.239 4.116 102.181 4.49239C101.109 4.85415 100.114 5.29919 99.1943 5.75934C98.2621 6.2169 97.3915 6.68909 96.5498 7.12058C95.7032 7.56213 94.8954 7.94943 94.1029 8.27255C93.3099 8.60987 92.5524 8.81159 91.818 8.95406L91.2753 9.0284C91.0947 9.05344 90.9123 9.04072 90.7315 9.05208C90.3747 9.08697 89.9924 9.02157 89.6218 9.01113C88.0982 8.82417 86.4722 8.27562 84.7188 7.59764C82.9727 6.93682 81.0694 6.15917 78.8642 5.7126C77.753 5.501 76.565 5.38958 75.3365 5.45111C74.1117 5.51684 72.8979 5.77272 71.7771 6.15416C69.5222 6.92257 67.6336 8.106 65.9361 9.26961C64.2381 10.4417 62.7028 11.6341 61.1977 12.6326C59.3493 13.8697 57.5535 14.7713 55.8669 14.9739C55.0228 15.097 54.1877 15.0246 53.2886 14.8369C52.394 14.6441 51.4554 14.3087 50.4811 13.8846C48.5171 13.0303 46.4512 11.8242 43.9602 10.8759C42.7138 10.4116 41.3343 10.0185 39.8745 9.85599L38.7819 9.76933L38.5089 9.7508L38.2394 9.75605L37.7002 9.7688C37.3439 9.78644 36.9742 9.77173 36.6293 9.82165L35.5828 9.94586C35.2281 9.97901 34.9024 10.0602 34.5644 10.122C34.2318 10.1913 33.8872 10.2475 33.565 10.3301C32.9264 10.5003 32.2647 10.6537 31.659 10.8541L30.7344 11.1417L29.8424 11.4476C29.2386 11.65 28.6809 11.8616 28.1004 12.0687C25.8322 12.9007 23.7056 13.6778 21.683 14.0893L20.9388 14.2061L20.5672 14.2661C20.4437 14.2848 20.3259 14.2842 20.205 14.2948L19.4845 14.3485C19.2468 14.3583 19.0187 14.3359 18.7853 14.3347C17.853 14.3275 16.9456 14.1481 16.0686 13.8743C14.3195 13.3011 12.6866 12.2221 11.2336 10.7956C9.47566 9.08742 7.79512 7.03113 6.28493 4.83858C4.8469 2.73457 3.51431 1.50799 2.24823 0.949867C1.33131 0.54054 0.725125 0.833322 0.523618 1.69112C0.326404 2.54636 0.522402 3.9732 1.31049 5.77944C2.30241 8.062 3.76381 10.4361 5.52605 12.4656C6.54334 13.6303 7.65507 14.7457 8.91579 15.7389C10.1727 16.7302 11.5774 17.607 13.1265 18.2391C13.8967 18.5601 14.7012 18.8211 15.5263 19.0054C16.3485 19.1993 17.191 19.321 18.0356 19.3609L19.3054 19.3932C19.7234 19.3758 20.1382 19.3402 20.5546 19.3121C20.9759 19.2954 21.3721 19.2135 21.7785 19.1566C22.1846 19.0977 22.5886 19.0343 22.9744 18.9392C24.5567 18.6182 26.0301 18.1395 27.457 17.6668C28.8869 17.1896 30.2525 16.6912 31.588 16.2718C32.2601 16.049 32.9116 15.8766 33.5666 15.6941C34.2109 15.5468 34.857 15.3873 35.4798 15.3051L35.9502 15.228L36.4087 15.1922L36.8657 15.1551C37.0188 15.1382 37.1695 15.13 37.3153 15.1394L38.1959 15.1527L39.0417 15.2614C41.4756 15.5987 44.0158 17.302 47.0094 18.5198C48.2105 19.0032 49.4881 19.4916 50.89 19.8491C52.2862 20.2073 53.8272 20.4143 55.4004 20.3152C56.968 20.206 58.4969 19.805 59.8596 19.226C61.2371 18.6579 62.4552 17.9333 63.599 17.1938C65.8651 15.7002 67.8225 14.0934 69.771 12.8107C71.7148 11.5113 73.6164 10.6047 75.4973 10.4221C76.8993 10.2983 78.4363 10.5565 80.0668 11.0791C81.6944 11.5785 83.3997 12.2825 85.2942 12.8609C85.7579 13.0122 86.2659 13.1308 86.7536 13.2614C87.2712 13.3613 87.7651 13.4927 88.3102 13.5499C89.3637 13.7235 90.5104 13.7223 91.6403 13.6147C92.7768 13.4719 93.8599 13.1814 94.8651 12.8103C95.8549 12.4285 96.8018 11.9942 97.6639 11.5304C99.2249 10.7119 100.633 9.85884 102.007 9.20015C102.696 8.85529 103.364 8.60119 104.028 8.37262C104.683 8.19603 105.333 8.02519 105.962 8.01437C107.212 7.91407 108.511 8.25031 109.861 8.82307C111.211 9.39525 112.58 10.1949 114.067 10.9804C114.437 11.1808 114.825 11.3655 115.218 11.5461L116.388 12.0927C117.176 12.4387 117.991 12.7232 118.79 13.0384C119.615 13.2874 120.43 13.5644 121.262 13.7835L122.518 14.0823L123.146 14.2307C123.355 14.2781 123.57 14.3066 123.781 14.3453C127.166 14.9729 130.641 15.1187 134.08 14.7983C136.824 14.5344 139.46 13.8899 141.841 12.9217C144.23 11.9733 146.33 10.6138 148.046 9.09262C149.614 7.65791 148.822 6.76508 146.764 7.622C143.804 8.80462 140.608 9.62208 137.417 10.0918C134.797 10.4714 132.082 10.7559 129.407 10.6101C129.402 10.584 129.397 10.5594 129.39 10.5289Z" fill="#A8EE52"/>
</svg>
